<mxfile host="app.diagrams.net" agent="Mozilla/5.0 (Windows NT 10.0; Win64; x64) AppleWebKit/537.36 (KHTML, like Gecko) Chrome/140.0.0.0 Safari/537.36" version="28.0.7">
  <diagram name="페이지-1" id="emVAnZOA9Z5CRwPGVYBD">
    <mxGraphModel dx="946" dy="644" grid="1" gridSize="10" guides="1" tooltips="1" connect="1" arrows="1" fold="1" page="1" pageScale="1" pageWidth="827" pageHeight="1169" math="0" shadow="0">
      <root>
        <mxCell id="0" />
        <mxCell id="1" parent="0" />
        <UserObject label="대기업 ESG 관리자" id="9_rcg2pDae8QjguVFl6M-1" shape="ellipse" fillColor="#E3F2FD" strokeColor="#1E88E5" placeholders="1">
          <mxCell style="whiteSpace=wrap;html=1;" vertex="1" parent="1">
            <mxGeometry x="20" y="20" width="120" height="30" as="geometry" />
          </mxCell>
        </UserObject>
        <UserObject label="협력사 담당자" id="9_rcg2pDae8QjguVFl6M-2" shape="ellipse" fillColor="#E3F2FD" strokeColor="#1E88E5" placeholders="1">
          <mxCell style="whiteSpace=wrap;html=1;" vertex="1" parent="1">
            <mxGeometry x="20" y="90" width="90" height="30" as="geometry" />
          </mxCell>
        </UserObject>
        <UserObject label="내부 운영자 Admin" id="9_rcg2pDae8QjguVFl6M-3" shape="ellipse" fillColor="#E3F2FD" strokeColor="#1E88E5" placeholders="1">
          <mxCell style="whiteSpace=wrap;html=1;" vertex="1" parent="1">
            <mxGeometry x="20" y="160" width="120" height="30" as="geometry" />
          </mxCell>
        </UserObject>
        <UserObject label="Web SPA · React" id="9_rcg2pDae8QjguVFl6M-4" shape="process" fillColor="#E8F5E9" strokeColor="#43A047" placeholders="1">
          <mxCell style="whiteSpace=wrap;html=1;" vertex="1" parent="1">
            <mxGeometry x="20" y="230" width="120" height="30" as="geometry" />
          </mxCell>
        </UserObject>
        <UserObject label="NGINX Ingress + WAF" id="9_rcg2pDae8QjguVFl6M-5" shape="process" fillColor="#FFF3E0" strokeColor="#FB8C00" placeholders="1">
          <mxCell style="whiteSpace=wrap;html=1;" vertex="1" parent="1">
            <mxGeometry x="20" y="300" width="140" height="30" as="geometry" />
          </mxCell>
        </UserObject>
        <UserObject label="Backend API · FastAPI" id="9_rcg2pDae8QjguVFl6M-6" shape="process" fillColor="#E8F5E9" strokeColor="#43A047" placeholders="1">
          <mxCell style="whiteSpace=wrap;html=1;" vertex="1" parent="1">
            <mxGeometry x="20" y="370" width="150" height="30" as="geometry" />
          </mxCell>
        </UserObject>
        <UserObject label="Async Workers · RAG Pipeline" id="9_rcg2pDae8QjguVFl6M-7" shape="process" fillColor="#E8F5E9" strokeColor="#43A047" placeholders="1">
          <mxCell style="whiteSpace=wrap;html=1;" vertex="1" parent="1">
            <mxGeometry x="20" y="440" width="190" height="30" as="geometry" />
          </mxCell>
        </UserObject>
        <UserObject label="PostgreSQL (메타데이터)" id="9_rcg2pDae8QjguVFl6M-8" shape="cylinder" fillColor="#EDE7F6" strokeColor="#8E24AA" placeholders="1">
          <mxCell style="whiteSpace=wrap;html=1;" vertex="1" parent="1">
            <mxGeometry x="20" y="510" width="150" height="30" as="geometry" />
          </mxCell>
        </UserObject>
        <UserObject label="Milvus (벡터 인덱스)" id="9_rcg2pDae8QjguVFl6M-9" shape="cylinder" fillColor="#EDE7F6" strokeColor="#8E24AA" placeholders="1">
          <mxCell style="whiteSpace=wrap;html=1;" vertex="1" parent="1">
            <mxGeometry x="20" y="580" width="130" height="30" as="geometry" />
          </mxCell>
        </UserObject>
        <UserObject label="MinIO Object Storage" id="9_rcg2pDae8QjguVFl6M-10" shape="datastore" fillColor="#EDE7F6" strokeColor="#8E24AA" placeholders="1">
          <mxCell style="whiteSpace=wrap;html=1;" vertex="1" parent="1">
            <mxGeometry x="20" y="650" width="140" height="30" as="geometry" />
          </mxCell>
        </UserObject>
        <UserObject label="Kafka (Strimzi)" id="9_rcg2pDae8QjguVFl6M-11" shape="process" fillColor="#FFFDE7" strokeColor="#FBC02D" placeholders="1">
          <mxCell style="whiteSpace=wrap;html=1;" vertex="1" parent="1">
            <mxGeometry x="20" y="720" width="100" height="30" as="geometry" />
          </mxCell>
        </UserObject>
        <UserObject label="Redis Cache" id="9_rcg2pDae8QjguVFl6M-12" shape="process" fillColor="#FFFDE7" strokeColor="#FBC02D" placeholders="1">
          <mxCell style="whiteSpace=wrap;html=1;" vertex="1" parent="1">
            <mxGeometry x="20" y="790" width="90" height="30" as="geometry" />
          </mxCell>
        </UserObject>
        <UserObject label="KServe (vLLM/Triton)" id="9_rcg2pDae8QjguVFl6M-13" shape="process" fillColor="#FFFDE7" strokeColor="#FBC02D" placeholders="1">
          <mxCell style="whiteSpace=wrap;html=1;" vertex="1" parent="1">
            <mxGeometry x="20" y="860" width="140" height="30" as="geometry" />
          </mxCell>
        </UserObject>
        <UserObject label="Vault/KMS" id="9_rcg2pDae8QjguVFl6M-14" shape="process" fillColor="#FFEBEE" strokeColor="#E53935" placeholders="1">
          <mxCell style="whiteSpace=wrap;html=1;" vertex="1" parent="1">
            <mxGeometry x="20" y="930" width="80" height="30" as="geometry" />
          </mxCell>
        </UserObject>
        <UserObject label="Loki · Prom · Tempo · Grafana" id="9_rcg2pDae8QjguVFl6M-15" shape="process" fillColor="#E1F5FE" strokeColor="#039BE5" placeholders="1">
          <mxCell style="whiteSpace=wrap;html=1;" vertex="1" parent="1">
            <mxGeometry x="20" y="1000" width="190" height="30" as="geometry" />
          </mxCell>
        </UserObject>
        <UserObject label="OpenShift Service Mesh(Istio)" id="9_rcg2pDae8QjguVFl6M-16" shape="process" fillColor="#F3E5F5" strokeColor="#8E24AA" placeholders="1">
          <mxCell style="whiteSpace=wrap;html=1;" vertex="1" parent="1">
            <mxGeometry x="20" y="1070" width="180" height="30" as="geometry" />
          </mxCell>
        </UserObject>
      </root>
    </mxGraphModel>
  </diagram>
</mxfile>
